<svg width="101" height="36" viewBox="0 0 101 36" fill="none" xmlns="http://www.w3.org/2000/svg">
<path d="M85.0535 24.629C85.0535 17.484 87.7059 13.9115 93.0105 13.9115C98.3368 13.9115 101 17.484 101 24.629C101 25.936 100.946 27.0796 100.838 28.0599C100.751 29.0402 100.534 30.0422 100.188 31.066C99.8633 32.0898 99.4194 32.9285 98.8565 33.582C98.2935 34.2355 97.5141 34.7692 96.5181 35.1831C95.5438 35.597 94.3746 35.8039 93.0105 35.8039C91.6681 35.8039 90.4989 35.597 89.5029 35.1831C88.5286 34.7692 87.76 34.2355 87.197 33.582C86.6341 32.9285 86.1794 32.0898 85.833 31.066C85.5082 30.0422 85.2917 29.0402 85.1834 28.0599C85.0968 27.0796 85.0535 25.936 85.0535 24.629ZM90.2824 32.6671C91.0186 33.1463 91.9279 33.386 93.0105 33.386C94.1148 33.386 95.035 33.1463 95.7711 32.6671C96.5289 32.1879 97.0919 31.5017 97.4599 30.6086C98.1095 29.0619 98.4343 27.0796 98.4343 24.6617C98.4343 18.7801 96.6264 15.8393 93.0105 15.8393C89.4163 15.8393 87.6193 18.7801 87.6193 24.6617C87.6193 28.8659 88.507 31.5344 90.2824 32.6671Z" fill="#3676E0"/>
<path d="M80.2976 32.9808C77.5998 34.9936 74.417 36 70.7492 36C67.0814 36 64.3382 34.7496 62.5194 32.2489C60.731 29.7481 59.8368 25.9208 59.8368 20.7668C59.8368 10.4893 63.641 5.35059 71.2494 5.35059C73.3713 5.35059 75.1748 5.77754 76.6601 6.63146C78.1455 7.45487 79.2064 8.64425 79.8429 10.1996C80.0248 10.7485 80.1158 11.3432 80.1158 11.9837C80.1158 13.8135 79.3276 14.7284 77.7514 14.7284C76.8117 14.7284 76.0842 14.4387 75.5689 13.8592C75.0536 13.2798 74.7959 12.5326 74.7959 11.6177C74.7959 10.7028 74.9778 9.98612 75.3416 9.46767C74.3716 8.52227 73.0075 8.04956 71.2494 8.04956C68.7335 8.04956 66.8238 9.10171 65.5204 11.206C64.2169 13.2798 63.5652 16.3447 63.5652 20.4008C63.5652 28.5435 66.0811 32.6148 71.113 32.6148C73.5683 32.6148 75.6447 31.9134 77.3422 30.5105C77.3119 28.0708 77.2058 25.9818 77.0239 24.2434C73.3864 24.3654 70.9463 24.5332 69.7035 24.7466C69.5519 23.9232 69.4761 23.1303 69.4761 22.3679C69.4761 21.6054 69.4913 21.087 69.5216 20.8125C71.0675 21.0565 73.0075 21.1785 75.3416 21.1785C77.6756 21.1785 79.4792 21.1327 80.7523 21.0413C80.4492 24.2739 80.2976 28.2538 80.2976 32.9808Z" fill="#3676E0"/>
<path d="M51.9085 16.1334C51.8652 15.7849 51.8435 15.4908 51.8435 15.2512C51.8435 14.9898 51.876 14.6739 51.941 14.3036C52.6338 14.3254 53.489 14.3363 54.5067 14.3363C55.546 14.3363 56.4445 14.3254 57.2023 14.3036C57.2673 14.6739 57.2997 15.0225 57.2997 15.3492C57.2997 15.6542 57.2781 15.9156 57.2348 16.1334L56.0981 16.2315C53.1318 22.6576 51.378 26.9054 50.8367 28.9748C50.9017 30.6304 50.9883 32.1116 51.0965 33.4187L52.2657 33.5167C52.309 33.8652 52.3307 34.1702 52.3307 34.4316C52.3307 34.6712 52.2982 34.9762 52.2333 35.3465C51.4754 35.3247 50.5985 35.3138 49.6026 35.3138C48.6066 35.3138 47.7405 35.3247 47.0044 35.3465C46.9394 35.0197 46.9069 34.7366 46.9069 34.4969C46.9069 34.2355 46.9286 33.9088 46.9719 33.5167L48.1086 33.4187C48.2385 31.5235 48.3143 30.0204 48.336 28.9095C47.773 27.0361 46.2574 23.6161 43.7891 18.6494C43.0962 17.2989 42.6849 16.4929 42.555 16.2315L41.3533 16.1334C41.31 15.7849 41.2883 15.4908 41.2883 15.2512C41.2883 14.9898 41.3208 14.6739 41.3858 14.3036C42.1436 14.3254 43.0746 14.3363 44.1788 14.3363C45.3047 14.3363 46.2357 14.3254 46.9719 14.3036C47.0369 14.6304 47.0693 14.9244 47.0693 15.1859C47.0693 15.4255 47.0477 15.7413 47.0044 16.1334L45.8352 16.2315C46.2466 17.7781 46.9286 19.597 47.8813 21.6882C48.8339 23.7794 49.4402 25.13 49.7 25.74H49.8299C50.4145 24.6072 51.0316 23.1368 51.6811 21.3288C52.3307 19.499 52.807 17.7999 53.1101 16.2315L51.9085 16.1334Z" fill="#FF2B2B"/>
<path d="M29.9869 16.2968C29.9219 16.0354 29.8895 15.6978 29.8895 15.2839C29.8895 14.87 29.9003 14.5977 29.9219 14.467C31.8273 14.2274 33.2455 14.1076 34.1765 14.1076C35.1075 14.1076 35.8978 14.2165 36.5474 14.4343C37.067 18.5296 38.8749 24.8577 41.9711 33.4187L43.1728 33.5167C43.2161 33.9959 43.2377 34.3336 43.2377 34.5296C43.2377 34.7039 43.2052 34.9762 43.1403 35.3465C42.534 35.3247 41.5922 35.3138 40.3148 35.3138C39.0373 35.3138 38.1496 35.3247 37.6516 35.3465C37.5866 35.0198 37.5542 34.7148 37.5542 34.4316C37.5542 34.1266 37.5758 33.8217 37.6191 33.5167L38.7558 33.4187C38.6476 32.8959 38.4744 32.1443 38.2362 31.1641C37.998 30.162 37.8681 29.6066 37.8465 29.4976C36.6123 29.4323 35.2699 29.3996 33.8192 29.3996C32.3902 29.3996 31.0478 29.4432 29.792 29.5303L28.8827 33.4187L30.1168 33.5167C30.1601 33.9959 30.1818 34.3336 30.1818 34.5296C30.1818 34.7039 30.1493 34.9762 30.0843 35.3465C29.5647 35.3247 28.7095 35.3138 27.5186 35.3138C26.3494 35.3138 25.5267 35.3247 25.0503 35.3465C24.9854 35.0198 24.9529 34.7148 24.9529 34.4316C24.9529 34.1266 24.9745 33.8217 25.0178 33.5167L26.1546 33.4187C28.7528 26.2519 30.4632 20.5773 31.286 16.3948L29.9869 16.2968ZM30.3766 27.243C31.1128 27.2648 32.217 27.2757 33.6893 27.2757C35.1616 27.2757 36.3525 27.243 37.2619 27.1777C36.2442 23.3002 35.1725 19.7168 34.0466 16.4275H33.8517C32.5743 19.5426 31.4159 23.1477 30.3766 27.243Z" fill="#3676E0"/>
<path d="M9.86018 17.4682C10.8962 18.5105 12.1287 19.0317 13.5577 19.0317C15.0225 19.0317 16.2014 18.5824 17.0945 17.6839C18.5236 16.2102 19.2381 14.0177 19.2381 11.1063C19.2381 5.75085 16.8802 3.07311 12.1645 3.07311C10.664 3.07311 8.98491 3.46848 7.12719 4.25922C6.87712 7.0987 6.75208 11.5197 6.75208 17.5221C6.75208 23.5246 6.91284 28.4128 7.23437 32.1868L10.2889 32.4024C10.3603 32.9775 10.3961 33.4987 10.3961 33.9659C10.3961 34.4332 10.3425 34.9005 10.2353 35.3677C8.94918 35.3318 7.27009 35.3138 5.19803 35.3138C3.16169 35.3138 1.58977 35.3318 0.48229 35.3677C0.375114 34.8286 0.321527 34.3613 0.321527 33.9659C0.321527 33.5346 0.357253 32.9955 0.428703 32.3485L2.30428 32.1868C2.59008 28.3409 2.73298 23.4347 2.73298 17.4682C2.73298 11.4658 2.55436 7.00884 2.19711 4.09748L0.160762 3.93574C0.0535864 3.43254 0 2.87542 0 2.2644C0 1.65337 0.0178613 1.20408 0.0535863 0.916543C1.55405 0.844656 3.60825 0.682914 6.2162 0.431315C8.03819 0.143772 10.0388 0 12.218 0C16.4336 0 19.4345 0.970456 21.2208 2.91137C23.0071 4.81634 23.9002 7.51204 23.9002 10.9985C23.9002 14.449 22.9892 17.2525 21.1672 19.4091C19.381 21.5657 16.648 22.644 12.9683 22.644C11.5393 22.644 10.1281 22.3744 8.73483 21.8353C8.73483 20.8648 8.85987 19.9662 9.10995 19.1395C9.36002 18.3129 9.6101 17.7557 9.86018 17.4682Z" fill="#3676E0"/>
</svg>
